<?xml version="1.0" standalone="no"?>
<!DOCTYPE svg PUBLIC "-//W3C//DTD SVG 20010904//EN"
 "http://www.w3.org/TR/2001/REC-SVG-20010904/DTD/svg10.dtd">
<svg version="1.0" xmlns="http://www.w3.org/2000/svg"
 width="260.000000pt" height="260.000000pt" viewBox="0 0 260.000000 260.000000"
 preserveAspectRatio="xMidYMid meet">
<metadata>
Created by potrace 1.11, written by Peter Selinger 2001-2013
</metadata>
<g transform="translate(0.000000,260.000000) scale(0.100000,-0.100000)"
fill="#000000" stroke="none">
<path d="M1284 2465 c-18 -8 -83 -19 -145 -25 -254 -24 -296 -37 -370 -116
-20 -22 -54 -53 -76 -70 -51 -41 -94 -125 -128 -249 -15 -55 -37 -131 -49
-170 -15 -51 -20 -89 -18 -140 6 -127 5 -208 -3 -328 -11 -165 11 -288 65
-356 21 -26 56 -62 79 -80 23 -18 38 -37 35 -42 -3 -5 -2 -9 3 -8 21 4 30 -4
53 -45 23 -43 23 -46 7 -64 -21 -23 -22 -68 -2 -76 8 -3 15 -17 15 -31 0 -13
27 -84 59 -157 33 -73 72 -170 86 -214 42 -131 97 -164 275 -164 89 0 103 3
135 24 20 14 57 32 83 41 148 52 184 69 209 98 54 60 90 92 129 115 57 34 70
57 104 188 25 94 31 137 29 204 -1 47 -1 90 0 96 0 6 30 24 66 39 46 19 70 36
80 56 20 38 20 39 -16 32 -36 -7 -49 6 -49 50 0 35 21 43 54 22 l25 -17 30 59
c42 84 62 161 62 240 0 80 -6 113 -33 167 -19 38 -59 186 -73 272 -8 52 9 119
42 162 30 39 26 64 -15 107 -77 80 -141 109 -215 99 -26 -4 -53 -2 -65 5 -25
13 -58 73 -78 142 -12 41 -19 50 -47 57 -17 5 -75 28 -128 51 -104 44 -158 51
-215 26z"/>
</g>
</svg>
